<?xml version="1.0" encoding="iso-8859-1"?>
<!-- Generator: Adobe Illustrator 19.0.0, SVG Export Plug-In . SVG Version: 6.00 Build 0)  -->
<svg version="1.1" id="Layer_1" xmlns="http://www.w3.org/2000/svg" xmlns:xlink="http://www.w3.org/1999/xlink" x="0px" y="0px"
	 viewBox="0 0 512 512" style="enable-background:new 0 0 512 512;" xml:space="preserve">
<g>
	<g>
		<path fill="#aeafc5" d="M256,0c-42.661,0-77.369,34.708-77.369,77.369c0,36.116,24.879,66.526,58.396,75.008l14.845,15.661
			c2.244,2.368,6.014,2.368,8.258,0l14.846-15.663c33.516-8.483,58.393-38.89,58.393-75.007C333.369,34.708,298.661,0,256,0z"/>
	</g>
</g>
<g>
	<g>
		<path fill="#aeafc5" d="M237.373,202.361l-39.831-42.026c-2.646-2.792-7.235-2.202-9.114,1.156c-6.234,11.142-9.797,23.971-9.797,37.621v60.302
			c0,9.425,7.641,17.067,17.067,17.067h37.547c3.141,0,5.689-2.547,5.689-5.689v-64.518
			C238.933,204.817,238.375,203.416,237.373,202.361z"/>
	</g>
</g>
<g>
	<g>
		<path fill="#aeafc5" d="M323.573,161.492c-1.878-3.358-6.466-3.948-9.114-1.156l-39.832,42.026c-1.001,1.057-1.56,2.458-1.56,3.913v64.517
			c0,3.141,2.547,5.689,5.689,5.689h37.547c9.425,0,17.067-7.641,17.067-17.067v-60.302
			C333.369,185.461,329.805,172.634,323.573,161.492z"/>
	</g>
</g>
<g>
	<g>
		<path fill="#aeafc5" d="M438.044,417.564h-13.653v-60.302c0-9.425-7.641-17.067-17.067-17.067H273.067v-28.444
			c0-9.425-7.641-17.067-17.067-17.067s-17.067,7.641-17.067,17.067v28.444H104.676c-9.425,0-17.067,7.641-17.067,17.067v60.302
			H73.956c-9.425,0-17.067,7.641-17.067,17.067v60.302c0,9.425,7.641,17.067,17.067,17.067h60.302
			c9.425,0,17.067-7.641,17.067-17.067v-60.302c0-9.425-7.641-17.067-17.067-17.067h-12.516v-43.236h117.191v43.236H225.28
			c-9.425,0-17.067,7.641-17.067,17.067v60.302c0,9.425,7.641,17.067,17.067,17.067h60.302c9.425,0,17.067-7.641,17.067-17.067
			v-60.302c0-9.425-7.641-17.067-17.067-17.067h-12.516v-43.236h117.191v43.236h-12.516c-9.425,0-17.067,7.641-17.067,17.067v60.302
			c0,9.425,7.641,17.067,17.067,17.067h60.302c9.425,0,17.067-7.641,17.067-17.067v-60.302
			C455.111,425.206,447.47,417.564,438.044,417.564z"/>
	</g>
</g>
<g>
</g>
<g>
</g>
<g>
</g>
<g>
</g>
<g>
</g>
<g>
</g>
<g>
</g>
<g>
</g>
<g>
</g>
<g>
</g>
<g>
</g>
<g>
</g>
<g>
</g>
<g>
</g>
<g>
</g>
</svg>
