<?xml version="1.0" encoding="iso-8859-1"?>
<!-- Generator: Adobe Illustrator 19.0.0, SVG Export Plug-In . SVG Version: 6.00 Build 0)  -->
<svg version="1.1" id="Layer_1" xmlns="http://www.w3.org/2000/svg" xmlns:xlink="http://www.w3.org/1999/xlink" x="0px" y="0px"
	 viewBox="0 0 512 512" style="enable-background:new 0 0 512 512;" xml:space="preserve">
<g>
	<g>
		<path fill="#aeafc5" d="M494.989,411.241h-39.122v-30.112c20.574-7.081,35.403-26.617,35.403-49.565c0-28.901-23.512-52.414-52.414-52.414
			s-52.414,23.512-52.414,52.414c0,22.947,14.829,42.484,35.403,49.565v30.112h-59.533V83.748c0-9.394-7.616-17.011-17.011-17.011
			H166.697c-9.394,0-17.011,7.616-17.011,17.011v327.493H91.856v-30.112c20.574-7.081,35.403-26.617,35.403-49.565
			c0-28.901-23.512-52.414-52.414-52.414c-28.901,0-52.415,23.512-52.415,52.414c0,22.947,14.83,42.484,35.404,49.565v30.112H17.011
			C7.616,411.241,0,418.858,0,428.252s7.616,17.011,17.011,17.011h477.979c9.394,0,17.011-7.616,17.011-17.011
			S504.385,411.241,494.989,411.241z M270.742,165.54c0-9.394,7.616-17.011,17.011-17.011c9.395,0,17.011,7.616,17.011,17.011
			v21.547c0,9.394-7.616,17.011-17.011,17.011c-9.394,0-17.011-7.616-17.011-17.011V165.54z M270.742,263.069
			c0-9.394,7.616-17.011,17.011-17.011s17.011,7.616,17.011,17.011v21.547c0,9.394-7.616,17.011-17.011,17.011
			s-17.011-7.616-17.011-17.011V263.069z M207.235,165.54c0-9.394,7.616-17.011,17.011-17.011s17.011,7.616,17.011,17.011v21.547
			c0,9.394-7.616,17.011-17.011,17.011s-17.011-7.616-17.011-17.011V165.54z M207.235,263.069c0-9.394,7.616-17.011,17.011-17.011
			s17.011,7.616,17.011,17.011v21.547c0,9.394-7.616,17.011-17.011,17.011s-17.011-7.616-17.011-17.011V263.069z M306.575,411.24
			h-99.447v-48.416c0-9.394,7.616-17.011,17.011-17.011h65.426c9.394,0,17.011,7.616,17.011,17.011V411.24z"/>
	</g>
</g>
<g>
</g>
<g>
</g>
<g>
</g>
<g>
</g>
<g>
</g>
<g>
</g>
<g>
</g>
<g>
</g>
<g>
</g>
<g>
</g>
<g>
</g>
<g>
</g>
<g>
</g>
<g>
</g>
<g>
</g>
</svg>
