<?xml version="1.0" encoding="iso-8859-1"?>
<!-- Generator: Adobe Illustrator 19.0.0, SVG Export Plug-In . SVG Version: 6.00 Build 0)  -->
<svg version="1.1" id="Layer_1" xmlns="http://www.w3.org/2000/svg" xmlns:xlink="http://www.w3.org/1999/xlink" x="0px" y="0px"
	 viewBox="0 0 511.467 511.467" style="enable-background:new 0 0 511.467 511.467;" xml:space="preserve">
<g>
	<g>
		<g>
			<path style="fill:#4c4c4c;" d="M170.315,191.742c-35.285,0-64,28.715-64,64s28.715,64,64,64s64-28.715,64-64S205.601,191.742,170.315,191.742z"/>
			<path style="fill:#4c4c4c;" d="M319.649,191.742c-35.285,0-64,28.715-64,64s28.715,64,64,64s64-28.715,64-64S354.934,191.742,319.649,191.742z"/>
			<path style="fill:#4c4c4c;" d="M95.96,130.784c-10.112-6.059-23.211-2.773-29.269,7.317l-64,106.667c-0.512,0.853-0.597,1.835-0.981,2.731
				c-0.576,1.387-1.195,2.731-1.493,4.203c-0.256,1.365-0.213,2.667-0.213,4.032c0,1.365-0.043,2.688,0.213,4.053
				c0.299,1.472,0.917,2.795,1.493,4.203c0.384,0.896,0.469,1.877,0.981,2.731l64,106.667c3.989,6.677,11.051,10.347,18.304,10.347
				c3.733,0,7.531-0.96,10.965-3.029c10.112-6.059,13.376-19.179,7.317-29.269l-57.408-95.701l57.408-95.68
				C109.336,149.941,106.072,136.842,95.96,130.784z"/>
			<path style="fill:#4c4c4c;" d="M511.433,252.736c-0.384-2.752-1.344-5.419-2.773-7.851c-0.043-0.043-0.021-0.085-0.043-0.128l-64-106.667
				c-6.08-10.091-19.157-13.376-29.291-7.317c-10.091,6.08-13.376,19.179-7.296,29.291l56.619,94.357l-55.403,73.856
				c-7.083,9.429-5.163,22.805,4.267,29.867c3.84,2.88,8.32,4.267,12.779,4.267c6.507,0,12.907-2.944,17.088-8.533l64-85.333
				c0.021-0.043,0.021-0.085,0.043-0.107c1.6-2.155,2.731-4.587,3.413-7.147c0.512-1.899,0.469-3.819,0.469-5.76
				C511.284,254.592,511.561,253.674,511.433,252.736z"/>
		</g>
	</g>
</g>
<g>
</g>
<g>
</g>
<g>
</g>
<g>
</g>
<g>
</g>
<g>
</g>
<g>
</g>
<g>
</g>
<g>
</g>
<g>
</g>
<g>
</g>
<g>
</g>
<g>
</g>
<g>
</g>
<g>
</g>
</svg>
