<?xml version="1.0" encoding="iso-8859-1"?>
<!-- Generator: Adobe Illustrator 19.0.0, SVG Export Plug-In . SVG Version: 6.00 Build 0)  -->
<svg version="1.1" id="Layer_1" xmlns="http://www.w3.org/2000/svg" xmlns:xlink="http://www.w3.org/1999/xlink" x="0px" y="0px"
	 viewBox="0 0 512.001 512.001" style="enable-background:new 0 0 512.001 512.001;" xml:space="preserve">
<g>
	<g>
		<path style="fill:#4c4c4c;" d="M350.952,365.555l-116.654-70.641c9.257-25.04,9.263-52.77,0-77.827l116.654-70.641
			c54.036,52.677,144.892,14.024,144.892-61.088C495.845,38.291,457.555,0,410.486,0c-56.883,0-98.202,55.029-81.763,109.836
			L212.066,180.48c-20.605-22.727-50.347-37.023-83.367-37.023c-62.056,0-112.543,50.486-112.543,112.543
			s50.486,112.543,112.543,112.543c33.02,0,62.762-14.297,83.367-37.022l116.657,70.644
			c-16.415,54.729,24.798,109.836,81.763,109.836c47.067,0,85.359-38.291,85.359-85.358
			C495.845,351.415,404.927,312.94,350.952,365.555z M410.486,42.829c23.451,0,42.53,19.078,42.53,42.528s-19.078,42.53-42.53,42.53
			c-23.451,0-42.528-19.078-42.528-42.53C367.958,61.907,387.037,42.829,410.486,42.829z M128.697,325.712
			c-38.439,0-69.713-31.273-69.713-69.713c0-38.441,31.273-69.713,69.713-69.713c38.441,0,69.712,31.273,69.712,69.713
			C198.409,294.439,167.138,325.712,128.697,325.712z M410.486,469.171c-23.451,0-42.528-19.078-42.528-42.528
			c0-23.451,19.078-42.53,42.528-42.53c23.451,0,42.53,19.078,42.53,42.53C453.016,450.092,433.938,469.171,410.486,469.171z"/>
	</g>
</g>
<g>
</g>
<g>
</g>
<g>
</g>
<g>
</g>
<g>
</g>
<g>
</g>
<g>
</g>
<g>
</g>
<g>
</g>
<g>
</g>
<g>
</g>
<g>
</g>
<g>
</g>
<g>
</g>
<g>
</g>
</svg>
